#!OML:ASF E:\Style6\Style6.ASF
:FULLY-SPECIFIED
:DEGREES
1989
root 1.99753 15.6663 0.475335 0.0684399 -18.9024 25.9155
lowerback 15.2131 0.774861 14.7649
upperback 6.82162 3.14813 17.6987
thorax -1.26916 1.43065 10.8775
lowerneck -6.81177 1.21077 12.1365
upperneck 28.3625 -4.76991 13.7249
head 10.6546 0.620649 2.4001
rclavicle 2.54444e-014 6.04305e-014
rhumerus 37.8912 -56.6992 -25.0353
rradius 57.1702
rwrist 37.993
rhand 27.7838 4.65552
rfingers 7.12502
rthumb 51.7039 -15.6244
lclavicle 2.54444e-014 6.04305e-014
lhumerus -100.302 -51.2993 130.531
lradius 98.4328
lwrist 30.8715
lhand -0.466227 9.69442
lfingers 7.12502
lthumb 25.1437 38.0586
rfemur -48.408 -13.4086 -15.5168
rtibia 72.1456
rfoot -20.3219 19.4161
rtoes 0.568621
lfemur -32.4991 25.3701 -55.0966
ltibia 54.1904
lfoot -25.9061 0.672374
ltoes -11.0775
1990
root 1.98706 15.6722 0.468084 0.0203732 -18.962 26.0267
lowerback 15.2365 0.770724 14.6208
upperback 6.82478 3.12913 17.6371
thorax -1.28444 1.4207 10.8833
lowerneck -6.81974 1.235 12.2006
upperneck 28.3946 -4.72394 13.611
head 10.663 0.637886 2.35362
rclavicle -3.49861e-014 -1.20861e-013
rhumerus 38.092 -56.6323 -25.1862
rradius 57.2172
rwrist 37.9439
rhand 27.7126 4.53615
rfingers 7.12502
rthumb 51.6392 -15.7814
lclavicle -3.49861e-014 -1.20861e-013
lhumerus -99.9815 -51.2719 130.433
lradius 98.34
lwrist 30.8903
lhand -0.505334 9.74287
lfingers 7.12502
lthumb 25.1063 38.1123
rfemur -48.4262 -13.3641 -15.5786
rtibia 72.0769
rfoot -20.385 19.3212
rtoes 0.00810202
lfemur -32.4676 25.3161 -55.1679
ltibia 54.0992
lfoot -25.8333 0.967121
ltoes -11.8908
1991
root 1.97637 15.6791 0.461312 -0.0161782 -18.9973 26.1191
lowerback 15.2394 0.758972 14.5215
upperback 6.82061 3.1023 17.5632
thorax -1.29221 1.40781 10.8504
lowerneck -6.87813 1.26357 12.1921
upperneck 28.461 -4.71357 13.6243
head 10.7013 0.650463 2.36412
rclavicle 2.8625e-014 -1.27222e-014
rhumerus 38.2619 -56.6094 -25.3391
rradius 57.2608
rwrist 37.9833
rhand 27.8343 4.47834
rfingers 7.12502
rthumb 51.7498 -15.7748
lclavicle 2.8625e-014 -1.27222e-014
lhumerus -99.6388 -51.2901 130.307
lradius 98.3146
lwrist 31.0033
lhand -0.586963 9.84389
lfingers 7.12502
lthumb 25.028 38.2242
rfemur -48.4223 -13.3213 -15.6298
rtibia 72.0048
rfoot -20.1946 19.5019
rtoes 1.63208
lfemur -32.4173 25.2414 -55.2113
ltibia 53.9925
lfoot -25.7527 1.13535
ltoes -12.1268
1992
root 1.96572 15.6875 0.456775 -0.0860403 -19.0034 26.1383
lowerback 15.1546 0.722296 14.5391
upperback 6.88854 3.01566 17.5032
thorax -1.15715 1.36924 10.7829
lowerneck -6.89659 1.28897 12.1498
upperneck 28.4056 -4.68335 13.6911
head 10.6854 0.660933 2.39642
rclavicle 6.36111e-015 9.54166e-015
rhumerus 38.5228 -56.6817 -25.6173
rradius 57.3377
rwrist 38.1328
rhand 27.9384 4.63735
rfingers 7.12502
rthumb 51.8442 -15.5604
lclavicle 6.36111e-015 9.54166e-015
lhumerus -99.1868 -51.3566 130.088
lradius 98.3723
lwrist 31.1233
lhand -0.761769 9.87818
lfingers 7.12502
lthumb 24.8605 38.2817
rfemur -48.3086 -13.2869 -15.5994
rtibia 71.908
rfoot -20.1749 19.5299
rtoes 1.91914
lfemur -32.3076 25.2084 -55.1522
ltibia 53.9096
lfoot -25.7042 1.26167
ltoes -12.5603
1993
root 1.95517 15.6975 0.45234 -0.10631 -19.0355 25.9765
lowerback 15.0071 0.671754 14.7103
upperback 7.01575 2.89676 17.478
thorax -0.90852 1.31764 10.6811
lowerneck -6.95489 1.33657 12.1644
upperneck 28.3674 -4.62946 13.707
head 10.6822 0.684964 2.40418
rclavicle -2.8625e-014 -1.27222e-014
rhumerus 38.9146 -56.7678 -26.0314
rradius 57.3464
rwrist 38.2351
rhand 27.8014 4.68954
rfingers 7.12502
rthumb 51.7199 -15.581
lclavicle -2.8625e-014 -1.27222e-014
lhumerus -98.5947 -51.4161 129.687
lradius 98.4619
lwrist 31.1659
lhand -0.847542 9.88849
lfingers 7.12502
lthumb 24.7783 38.3034
rfemur -48.1988 -13.1731 -15.36
rtibia 71.809
rfoot -20.4424 19.2501
rtoes 0.148203
lfemur -32.2302 25.1686 -54.9117
ltibia 53.8473
lfoot -25.6423 1.23079
ltoes -12.0499
1994
root 1.94455 15.7083 0.446942 -0.0957102 -19.117 25.7784
lowerback 14.9901 0.649563 14.8605
upperback 7.07687 2.86309 17.4658
thorax -0.815697 1.30413 10.5904
lowerneck -7.02128 1.35118 12.2321
upperneck 28.3933 -4.63476 13.6844
head 10.7062 0.690938 2.38586
rclavicle -1.90833e-014 -6.67916e-014
rhumerus 39.0227 -56.7348 -26.0766
rradius 57.3267
rwrist 38.1399
rhand 27.6923 4.55811
rfingers 7.12502
rthumb 51.6208 -15.7701
lclavicle -1.90833e-014 -6.67916e-014
lhumerus -98.2593 -51.3769 129.474
lradius 98.5673
lwrist 31.1449
lhand -0.805647 9.86245
lfingers 7.12502
lthumb 24.8185 38.2718
rfemur -48.157 -12.9983 -15.0705
rtibia 71.7219
rfoot -20.8906 18.6972
rtoes -3.04476
lfemur -32.2018 25.1586 -54.6566
ltibia 53.7922
lfoot -25.6204 1.35329
ltoes -11.9636
1995
root 1.93198 15.7144 0.442279 -0.1559 -19.1817 25.9227
lowerback 15.0074 0.671264 14.6985
upperback 7.06582 2.87798 17.3589
thorax -0.846181 1.31124 10.5433
lowerneck -7.051 1.33692 12.3549
upperneck 28.3899 -4.68586 13.6923
head 10.7149 0.681924 2.36384
rclavicle -6.36111e-015 1.04958e-013
rhumerus 38.7236 -56.6715 -25.7511
rradius 57.3613
rwrist 37.9572
rhand 27.7351 4.50095
rfingers 7.12502
rthumb 51.6597 -15.8047
lclavicle -6.36111e-015 1.04958e-013
lhumerus -98.1842 -51.352 129.461
lradius 98.6957
lwrist 31.1141
lhand -0.68382 9.87463
lfingers 7.12502
lthumb 24.9352 38.2679
rfemur -48.1646 -12.9366 -15.1755
rtibia 71.6547
rfoot -20.6819 18.8916
rtoes -1.62994
lfemur -32.1695 25.1428 -54.7441
ltibia 53.7217
lfoot -25.6102 1.32105
ltoes -11.5336
1996
root 1.9192 15.7203 0.434396 -0.174647 -19.2299 26.0491
lowerback 15.0065 0.683698 14.5123
upperback 7.04583 2.87604 17.2757
thorax -0.878046 1.3092 10.5422
lowerneck -6.99302 1.37809 12.4125
upperneck 28.3057 -4.64027 13.7825
head 10.6753 0.706127 2.38901
rclavicle -1.90833e-014 -1.08139e-013
rhumerus 38.5003 -56.5682 -25.5244
rradius 57.418
rwrist 37.8493
rhand 27.8098 4.46917
rfingers 7.12502
rthumb 51.7275 -15.797
lclavicle -1.90833e-014 -1.08139e-013
lhumerus -98.086 -51.3104 129.428
lradius 98.8413
lwrist 31.1276
lhand -0.564418 9.78576
lfingers 7.12502
lthumb 25.0496 38.1631
rfemur -48.2132 -12.8694 -15.2465
rtibia 71.5825
rfoot -20.5327 18.9307
rtoes -0.915837
lfemur -32.1812 25.1188 -54.8319
ltibia 53.6469
lfoot -25.5802 1.23575
ltoes -10.8995
1997
root 1.90734 15.7328 0.426183 -0.0342251 -19.2645 25.8085
lowerback 14.9686 0.6733 14.6308
upperback 7.04119 2.86736 17.3239
thorax -0.855289 1.3049 10.5385
lowerneck -6.9055 1.45414 12.4691
upperneck 28.1636 -4.50306 13.7876
head 10.6008 0.754929 2.38941
rclavicle 6.67916e-014 9.54166e-014
rhumerus 38.501 -56.5061 -25.4715
rradius 57.4517
rwrist 37.8556
rhand 27.7485 4.447
rfingers 7.12502
rthumb 51.6718 -15.8516
lclavicle 6.67916e-014 9.54166e-014
lhumerus -97.8159 -51.2178 129.292
lradius 98.9568
lwrist 31.1537
lhand -0.373211 9.83802
lfingers 7.12502
lthumb 25.2329 38.1896
rfemur -48.2705 -12.7232 -14.8959
rtibia 71.4753
rfoot -20.746 18.4394
rtoes -2.73397
lfemur -32.2683 25.038 -54.5787
ltibia 53.583
lfoot -25.4774 1.19847
ltoes -10.4978
1998
root 1.8965 15.7445 0.419782 0.0651505 -19.205 25.6434
lowerback 14.9267 0.626652 14.7626
upperback 7.03235 2.81459 17.3376
thorax -0.829391 1.28071 10.4922
lowerneck -6.92091 1.48516 12.5086
upperneck 28.0894 -4.46743 13.8224
head 10.5769 0.770645 2.39652
rclavicle -6.99722e-014 -6.04305e-014
rhumerus 38.5336 -56.5213 -25.4845
rradius 57.4932
rwrist 37.86
rhand 27.7694 4.47928
rfingers 7.12502
rthumb 51.6908 -15.8082
lclavicle -6.99722e-014 -6.04305e-014
lhumerus -97.4712 -51.1272 129.113
lradius 99.0063
lwrist 31.1912
lhand -0.0784596 9.84219
lfingers 7.12502
lthumb 25.5152 38.1537
rfemur -48.2024 -12.6737 -14.6699
rtibia 71.3444
rfoot -20.6668 18.398
rtoes -2.45416
lfemur -32.2632 24.9133 -54.3755
ltibia 53.5146
lfoot -25.4072 1.25232
ltoes -10.652
1999
root 1.88476 15.7545 0.414749 0.0708912 -19.175 25.6798
lowerback 14.8697 0.615596 14.7136
upperback 7.03946 2.77804 17.3057
thorax -0.789453 1.26404 10.4862
lowerneck -6.99409 1.42495 12.4921
upperneck 28.1004 -4.57402 13.8565
head 10.5994 0.728874 2.4014
rclavicle -5.08889e-014 -6.99722e-014
rhumerus 38.4972 -56.5521 -25.3853
rradius 57.5056
rwrist 37.698
rhand 27.8592 4.55345
rfingers 7.12502
rthumb 51.7724 -15.6864
lclavicle -5.08889e-014 -6.99722e-014
lhumerus -97.2817 -51.0878 129.061
lradius 99.0994
lwrist 31.24
lhand 0.0534389 9.81944
lfingers 7.12502
lthumb 25.6416 38.1128
rfemur -48.1198 -12.6436 -14.6708
rtibia 71.1938
rfoot -20.3732 18.6332
rtoes -0.66866
lfemur -32.2148 24.8283 -54.3664
ltibia 53.4311
lfoot -25.3363 1.44841
ltoes -11.2392
2000
root 1.87266 15.768 0.408291 0.0849792 -19.2661 25.5139
lowerback 14.9245 0.611094 14.754
upperback 7.06238 2.78405 17.3511
thorax -0.792647 1.26534 10.5199
lowerneck -6.93834 1.37563 12.4199
upperneck 28.069 -4.61557 13.8688
head 10.5758 0.698875 2.41106
rclavicle -4.13472e-014 1.30403e-013
rhumerus 38.717 -56.5535 -25.4998
rradius 57.4383
rwrist 37.6914
rhand 27.9319 4.67199
rfingers 7.12502
rthumb 51.8384 -15.5292
lclavicle -4.13472e-014 1.30403e-013
lhumerus -97.3116 -50.9445 129.159
lradius 99.2739
lwrist 31.251
lhand 0.0676326 9.93823
lfingers 7.12502
lthumb 25.6552 38.2297
rfemur -48.0536 -12.4231 -14.4385
rtibia 71.0251
rfoot -20.3324 18.5642
rtoes -0.0493667
lfemur -32.1869 24.8342 -54.1549
ltibia 53.3275
lfoot -25.2212 1.57573
ltoes -11.4829
2001
root 1.86228 15.7853 0.401935 0.159131 -19.2921 25.2228
lowerback 14.996 0.578777 14.9577
upperback 7.05074 2.7878 17.4117
thorax -0.833266 1.26645 10.4823
lowerneck -6.87438 1.36956 12.3965
upperneck 27.9738 -4.59369 13.8867
head 10.5258 0.695839 2.41894
rclavicle -3.18055e-014 -8.90555e-014
rhumerus 39.0186 -56.601 -25.757
rradius 57.3537
rwrist 37.85
rhand 27.8854 4.65734
rfingers 7.12502
rthumb 51.7962 -15.5686
lclavicle -3.18055e-014 -8.90555e-014
lhumerus -97.4663 -50.7941 129.359
lradius 99.4191
lwrist 31.3212
lhand -0.12408 9.9485
lfingers 7.12502
lthumb 25.4715 38.2663
rfemur -47.9383 -12.256 -14.0801
rtibia 70.8596
rfoot -20.4105 18.3512
rtoes -0.368212
lfemur -32.1193 24.7557 -53.8121
ltibia 53.1952
lfoot -25.1227 1.61837
ltoes -11.3376
2002
root 1.85321 15.7982 0.396128 0.162701 -19.2022 25.2652
lowerback 14.9781 0.533723 14.9387
upperback 7.03541 2.72796 17.3731
thorax -0.836236 1.23826 10.455
lowerneck -6.87454 1.38981 12.4184
upperneck 27.8923 -4.56332 13.9183
head 10.4956 0.706131 2.42665
rclavicle -3.18055e-015 8.5875e-014
rhumerus 39.2766 -56.6535 -25.9901
rradius 57.2754
rwrist 37.9423
rhand 27.7915 4.49842
rfingers 7.12502
rthumb 51.7108 -15.7774
lclavicle -3.18055e-015 8.5875e-014
lhumerus -97.538 -50.7012 129.452
lradius 99.4947
lwrist 31.3611
lhand -0.392021 9.7629
lfingers 7.12502
lthumb 25.2148 38.1171
rfemur -47.8045 -12.3259 -14.1039
rtibia 70.7282
rfoot -20.3133 18.4094
rtoes 0.0231642
lfemur -32.0003 24.6296 -53.8024
ltibia 53.0361
lfoot -25.0457 1.75183
ltoes -11.7309
